<?xml version="1.0" encoding="UTF-8" standalone="no"?>
<!DOCTYPE svg PUBLIC "-//W3C//DTD SVG 1.1//EN" "http://www.w3.org/Graphics/SVG/1.1/DTD/svg11.dtd">
<svg width="456" height="456" viewBox="0 0 456 456" fill="none" xmlns="http://www.w3.org/2000/svg">
	<rect width="456" height="456" fill="white"/>
	<path d="M89.3775 307.078C80.5808 307.078 72.7025 305.773 65.7425 303.163C58.8792 300.649 53.4658 296.928 49.5025 291.998C45.5392 287.068 43.5575 281.074 43.5575 274.017C43.5575 269.184 44.6692 263.819 46.8925 257.922C48.1492 254.636 50.0342 251.591 52.5475 248.787C55.1575 245.887 57.8158 243.519 60.5225 241.683C63.2292 239.846 65.3558 238.879 66.9025 238.782H67.3375C68.2075 238.782 68.6425 238.927 68.6425 239.217C68.6425 239.701 68.0142 240.232 66.7575 240.812C65.2108 241.489 63.2292 242.939 60.8125 245.162C58.4925 247.386 56.2692 250.141 54.1425 253.427C52.0158 256.617 50.4208 260.242 49.3575 264.302C48.9708 265.656 48.6808 267.009 48.4875 268.362C48.3908 269.716 48.3425 271.021 48.3425 272.277C48.3425 277.497 49.5508 281.992 51.9675 285.763C54.4808 289.533 57.7675 292.626 61.8275 295.043C65.9842 297.556 70.5275 299.393 75.4575 300.553C80.3875 301.809 85.3175 302.438 90.2475 302.438C92.4708 302.438 94.6458 302.293 96.7725 302.003C98.9958 301.809 101.074 301.471 103.008 300.988C111.514 298.861 119.248 295.623 126.207 291.273C133.168 286.923 139.403 281.944 144.913 276.337C150.519 270.731 155.401 264.931 159.558 258.937C163.714 252.847 167.243 246.999 170.143 241.392C173.043 235.786 175.266 230.807 176.813 226.457C179.713 218.724 182.613 211.619 185.513 205.142C188.509 198.666 191.216 193.204 193.633 188.757C196.049 184.214 197.789 181.072 198.853 179.332C193.633 180.492 188.026 181.846 182.033 183.392C176.136 184.842 170.288 186.727 164.488 189.047C158.688 191.271 153.226 194.026 148.103 197.312C143.076 200.599 138.774 204.562 135.198 209.202C131.621 213.842 129.108 219.304 127.658 225.587C127.174 227.811 126.933 229.744 126.933 231.387C126.933 235.641 127.948 239.121 129.978 241.827C132.104 244.437 134.956 245.742 138.533 245.742C140.563 245.742 142.641 245.307 144.768 244.437C148.344 242.987 151.099 241.102 153.033 238.782C155.063 236.366 156.464 233.901 157.238 231.387C158.011 228.777 158.398 226.457 158.398 224.427C158.398 221.527 157.963 219.739 157.093 219.062C157.093 218.966 157.044 218.917 156.948 218.917C156.948 218.917 156.948 218.869 156.948 218.772C156.948 218.289 157.141 217.806 157.528 217.322C158.011 216.839 158.494 216.597 158.978 216.597C159.461 216.597 159.848 216.936 160.138 217.612C161.298 219.932 161.878 222.349 161.878 224.862C161.878 227.956 161.104 231.049 159.558 234.142C158.108 237.236 156.078 239.991 153.468 242.407C150.954 244.824 148.151 246.612 145.058 247.772C142.158 248.932 139.258 249.512 136.358 249.512C131.138 249.512 126.643 247.772 122.872 244.292C119.199 240.716 117.363 236.124 117.363 230.517C117.363 228.777 117.556 227.134 117.943 225.587C119.489 218.724 122.438 212.731 126.788 207.607C131.138 202.484 136.406 198.086 142.593 194.412C148.779 190.739 155.304 187.694 162.168 185.277C169.128 182.764 175.991 180.734 182.758 179.187C189.524 177.641 195.663 176.384 201.173 175.417C201.559 174.644 202.333 173.436 203.493 171.792C204.653 170.052 206.006 168.409 207.553 166.862C209.099 165.219 210.646 164.156 212.193 163.672C213.353 163.286 214.609 163.092 215.963 163.092C217.316 163.092 218.428 163.431 219.298 164.107C220.168 164.784 220.603 165.847 220.603 167.297C220.603 170.101 219.394 172.227 216.978 173.677C214.658 175.031 212.096 176.239 209.293 177.302C208.423 177.302 207.359 177.544 206.102 178.027C204.943 178.414 204.024 178.607 203.348 178.607C199.771 185.084 196.823 191.464 194.503 197.747C192.183 204.031 190.056 210.217 188.123 216.307C186.286 222.301 184.353 228.294 182.323 234.287C180.293 240.184 177.779 246.129 174.783 252.122C171.786 258.019 167.968 263.964 163.328 269.957C155.401 280.204 146.459 288.276 136.503 294.173C126.643 300.069 116.444 303.888 105.908 305.627C103.008 306.111 100.156 306.449 97.3525 306.643C94.5492 306.933 91.8908 307.078 89.3775 307.078ZM205.813 174.837C209.583 174.064 212.096 173.194 213.353 172.227C214.706 171.261 215.383 170.391 215.383 169.617C215.383 169.037 215.189 168.602 214.803 168.312C214.416 167.926 214.029 167.732 213.643 167.732C213.159 167.539 212.434 167.877 211.468 168.747C210.501 169.521 209.486 170.536 208.423 171.792C207.456 172.952 206.586 173.967 205.813 174.837ZM173.766 285.038C177.343 278.174 180.726 271.311 183.916 264.447C187.106 257.487 190.345 250.914 193.631 244.727C195.565 241.247 197.16 238.831 198.416 237.477C199.77 236.027 201.558 235.302 203.781 235.302C204.555 235.302 205.376 235.447 206.246 235.737C207.116 235.931 207.986 236.027 208.856 236.027C209.436 236.027 209.871 235.979 210.161 235.882C208.808 236.656 207.068 238.589 204.941 241.683C202.815 244.679 200.64 248.159 198.416 252.122C196.193 256.086 194.211 259.807 192.471 263.287C194.308 261.064 196.193 258.841 198.126 256.617C200.156 254.394 202.38 252.267 204.796 250.237C206.923 248.401 209.146 246.419 211.466 244.292C213.883 242.069 216.251 240.184 218.571 238.637C220.891 237.091 222.921 236.317 224.661 236.317C225.338 236.317 225.773 236.366 225.966 236.462C227.803 237.236 228.721 238.492 228.721 240.232C228.721 240.812 228.48 241.682 227.996 242.842C226.74 246.129 225.096 249.512 223.066 252.992C221.133 256.376 219.296 259.807 217.556 263.287C219.006 261.547 220.795 259.421 222.921 256.907C225.145 254.394 227.368 252.171 229.591 250.237C231.718 248.304 234.425 246.274 237.711 244.147C240.998 242.021 244.236 240.184 247.426 238.637C250.616 237.091 253.178 236.317 255.111 236.317C255.788 236.317 256.271 236.366 256.561 236.462C256.561 236.462 256.03 237.429 254.966 239.362C253.903 241.199 252.55 243.664 250.906 246.757C249.36 249.754 247.765 252.992 246.121 256.472C244.478 259.856 242.98 263.142 241.626 266.332C240.37 269.426 239.548 272.036 239.161 274.162C238.871 275.419 238.726 276.579 238.726 277.642C238.726 279.189 239.016 280.204 239.596 280.687C240.176 281.171 240.805 281.412 241.481 281.412C243.415 281.412 245.396 280.397 247.426 278.367C249.456 276.337 251.39 273.921 253.226 271.117C255.16 268.217 256.851 265.414 258.301 262.707C259.751 259.904 260.815 257.777 261.491 256.327C262.071 255.264 262.651 254.732 263.231 254.732C263.811 254.732 264.101 255.119 264.101 255.892C264.101 256.376 263.956 256.907 263.666 257.487C262.506 259.711 261.105 262.369 259.461 265.462C257.915 268.556 256.126 271.601 254.096 274.597C252.066 277.497 249.795 279.962 247.281 281.992C244.865 283.926 242.255 284.893 239.451 284.893C237.421 284.893 235.343 284.216 233.216 282.862C231.186 281.509 230.171 278.996 230.171 275.322C230.171 273.292 230.606 270.827 231.476 267.927C232.153 265.994 233.168 263.771 234.521 261.257C235.971 258.744 237.711 255.844 239.741 252.557C240.708 250.914 241.191 249.609 241.191 248.642C241.191 247.482 240.611 246.902 239.451 246.902C238.485 246.902 237.131 247.386 235.391 248.352C233.748 249.319 231.67 251.011 229.156 253.427C227.61 254.877 225.773 256.907 223.646 259.517C221.616 262.031 219.538 264.786 217.411 267.782C215.285 270.779 213.448 273.727 211.901 276.627C210.355 279.527 209.34 282.089 208.856 284.312C207.406 284.312 206.246 283.732 205.376 282.572C204.506 281.316 204.071 279.866 204.071 278.222C204.071 277.932 204.071 277.642 204.071 277.352C204.071 277.062 204.12 276.724 204.216 276.337C204.7 273.341 205.473 270.537 206.536 267.927C207.6 265.317 208.808 262.611 210.161 259.807C211.225 257.777 212.288 255.602 213.351 253.282C214.415 250.866 214.946 249.029 214.946 247.772C214.946 246.999 214.656 246.612 214.076 246.612C213.4 246.612 212.288 247.144 210.741 248.207C209.195 249.174 207.068 250.914 204.361 253.427C201.945 255.747 198.996 259.082 195.516 263.432C192.133 267.782 188.411 273.969 184.351 281.992C183.771 283.056 183.095 283.732 182.321 284.022C181.548 284.216 180.34 284.312 178.696 284.312C177.633 284.312 176.763 284.312 176.086 284.312C175.313 284.409 174.54 284.651 173.766 285.038ZM292.491 284.748C291.427 284.844 290.219 284.603 288.866 284.022C287.512 283.442 286.304 282.379 285.241 280.832C284.274 279.286 283.791 277.111 283.791 274.307C283.791 271.987 284.226 269.184 285.096 265.897C283.936 267.734 282.437 270.006 280.601 272.712C278.764 275.322 276.782 277.642 274.656 279.672C272.819 281.412 271.079 282.669 269.436 283.442C267.792 284.216 266.294 284.603 264.941 284.603C262.427 284.603 260.397 283.491 258.851 281.267C257.304 278.947 256.531 275.951 256.531 272.277C256.531 268.411 257.497 264.012 259.431 259.082C261.364 254.152 264.506 249.029 268.856 243.712C271.659 240.329 275.042 237.622 279.006 235.592C283.066 233.466 287.029 232.402 290.896 232.402C293.119 232.402 295.246 232.789 297.276 233.562C299.306 234.239 301.094 235.399 302.641 237.042C303.317 237.719 303.656 238.492 303.656 239.362C303.656 239.942 303.414 240.426 302.931 240.812C302.447 241.199 301.819 241.296 301.046 241.102C299.982 237.719 297.711 236.027 294.231 236.027C292.587 236.027 290.702 236.559 288.576 237.622C285.289 239.362 281.857 242.214 278.281 246.177C274.801 250.141 271.756 254.249 269.146 258.502C268.759 259.082 268.131 260.194 267.261 261.837C266.487 263.481 265.714 265.317 264.941 267.347C264.167 269.377 263.636 271.359 263.346 273.292C263.249 273.872 263.201 274.307 263.201 274.597C263.201 274.791 263.201 275.129 263.201 275.612C263.201 278.802 264.409 280.397 266.826 280.397C269.726 280.397 273.012 278.271 276.686 274.017C279.199 270.924 281.471 267.686 283.501 264.302C285.531 260.919 287.609 257.294 289.736 253.427C291.186 250.817 292.539 248.642 293.796 246.902C295.052 245.162 296.841 244.292 299.161 244.292C300.224 244.292 301.287 244.437 302.351 244.727C303.414 245.017 304.526 245.066 305.686 244.872C304.912 245.646 303.849 247.096 302.496 249.222C301.239 251.349 299.886 253.766 298.436 256.472C296.986 259.179 295.681 261.934 294.521 264.737C293.361 267.541 292.539 269.957 292.056 271.987C291.959 272.567 291.814 273.389 291.621 274.452C291.524 275.516 291.476 276.289 291.476 276.772C291.476 279.479 292.249 280.832 293.796 280.832C295.342 280.832 296.986 279.914 298.726 278.077C300.562 276.241 302.351 273.969 304.091 271.262C305.831 268.556 307.426 265.849 308.876 263.142C310.326 260.339 311.486 258.067 312.356 256.327C312.742 255.361 313.322 254.877 314.096 254.877C314.579 254.877 314.821 255.216 314.821 255.892C314.821 256.182 314.676 256.714 314.386 257.487C313.226 259.904 311.824 262.659 310.181 265.752C308.537 268.749 306.749 271.697 304.816 274.597C302.882 277.401 300.852 279.769 298.726 281.702C296.696 283.539 294.617 284.554 292.491 284.748ZM319.252 284.312C316.546 284.312 314.129 283.394 312.002 281.557C309.876 279.624 308.812 276.627 308.812 272.567C308.812 269.377 309.392 265.462 310.552 260.822C311.809 256.086 313.307 251.204 315.047 246.177C316.884 241.054 318.672 236.414 320.412 232.257H312.727C312.051 232.257 311.712 231.774 311.712 230.807C311.712 230.324 311.809 229.889 312.002 229.502C312.292 229.116 312.679 228.922 313.162 228.922H321.862C323.506 225.249 325.246 221.672 327.082 218.192C328.919 214.712 330.707 211.426 332.447 208.332C334.671 204.466 337.039 201.566 339.552 199.632C342.066 197.699 344.241 196.732 346.077 196.732C347.527 196.732 348.736 197.312 349.702 198.472C350.669 199.536 351.152 201.179 351.152 203.402C351.152 204.756 350.862 206.641 350.282 209.057C349.702 211.377 348.784 213.842 347.527 216.452C346.851 217.806 345.884 219.739 344.627 222.252C343.467 224.766 342.307 226.989 341.147 228.922H348.107C348.784 228.922 349.122 229.406 349.122 230.372C349.122 230.759 349.026 231.194 348.832 231.677C348.639 232.064 348.349 232.257 347.962 232.257H339.407C336.991 236.414 334.236 240.474 331.142 244.437C328.049 248.401 324.376 252.364 320.122 256.327C319.832 257.197 319.446 258.454 318.962 260.097C318.576 261.741 318.189 263.432 317.802 265.173C317.512 266.816 317.222 268.217 316.932 269.377C316.739 270.537 316.642 271.117 316.642 271.117C316.352 272.374 316.207 273.534 316.207 274.597C316.207 276.627 316.691 278.126 317.657 279.092C318.624 279.962 319.736 280.397 320.992 280.397C321.766 280.397 322.539 280.301 323.312 280.107C324.086 279.817 324.956 279.334 325.922 278.657C329.306 276.241 332.254 272.954 334.767 268.797C337.377 264.641 339.649 260.629 341.582 256.762C342.162 255.602 342.742 255.022 343.322 255.022C343.709 255.022 343.902 255.312 343.902 255.892C343.902 256.182 343.757 256.714 343.467 257.487C341.341 261.934 339.552 265.511 338.102 268.217C336.652 270.924 335.251 273.196 333.897 275.032C332.544 276.772 330.949 278.512 329.112 280.252C327.759 281.606 326.212 282.621 324.472 283.297C322.732 283.974 320.992 284.312 319.252 284.312ZM330.707 228.922H338.102C339.456 226.409 340.712 223.944 341.872 221.527C343.129 219.111 344.241 216.694 345.207 214.277C345.884 212.731 346.464 210.991 346.947 209.057C347.431 207.124 347.672 205.626 347.672 204.562C347.672 203.112 347.334 202.388 346.657 202.388C346.174 202.388 345.449 202.822 344.482 203.692C343.612 204.466 342.501 205.819 341.147 207.753C339.407 210.169 337.667 213.311 335.927 217.177C334.284 220.947 332.544 224.862 330.707 228.922ZM321.282 251.687C324.086 248.787 326.696 245.694 329.112 242.407C331.626 239.121 333.946 235.737 336.072 232.257H329.257C327.711 235.834 326.261 239.314 324.907 242.697C323.554 246.081 322.346 249.077 321.282 251.687ZM351.612 284.893C348.036 284.893 344.797 283.732 341.897 281.412C339.094 279.092 337.692 275.564 337.692 270.827C337.692 266.477 338.756 261.837 340.882 256.907C343.009 251.881 345.716 247.482 349.002 243.712C351.806 240.426 354.947 237.719 358.427 235.592C361.907 233.466 365.194 232.402 368.287 232.402C370.414 232.402 372.251 232.982 373.797 234.142C375.441 235.399 376.262 237.187 376.262 239.507C376.262 241.924 375.344 244.582 373.507 247.482C371.671 250.382 369.061 253.089 365.677 255.602C364.227 256.666 362.391 257.681 360.167 258.647C357.944 259.614 355.721 260.436 353.497 261.112C351.274 261.692 349.437 261.982 347.987 261.982C347.504 263.142 347.021 264.689 346.537 266.622C346.151 268.556 345.957 270.537 345.957 272.567C345.957 274.984 346.441 277.159 347.407 279.092C348.374 281.026 350.162 281.992 352.772 281.992C355.962 281.992 358.862 281.074 361.472 279.237C364.082 277.401 366.402 275.129 368.432 272.422C370.462 269.619 372.154 266.816 373.507 264.012C374.957 261.209 376.117 258.841 376.987 256.907C377.567 255.554 378.341 254.877 379.307 254.877C379.791 254.877 380.032 255.119 380.032 255.602C380.032 255.989 379.887 256.472 379.597 257.052C378.244 259.952 376.794 263.046 375.247 266.332C373.701 269.522 371.864 272.567 369.737 275.467C367.611 278.271 365.049 280.542 362.052 282.282C359.152 284.022 355.672 284.893 351.612 284.893ZM349.002 259.372C350.356 259.372 352.627 258.889 355.817 257.922C359.007 256.859 361.907 255.216 364.517 252.992C367.031 250.769 368.964 248.352 370.317 245.742C371.671 243.036 372.347 240.764 372.347 238.927C372.347 236.801 371.574 235.737 370.027 235.737C368.867 235.737 367.272 236.511 365.242 238.057C363.212 239.604 360.699 242.214 357.702 245.887C355.866 248.207 354.126 250.721 352.482 253.427C350.839 256.134 349.679 258.116 349.002 259.372Z" fill="black"/>
	<g clip-path="url(#clip0_611_7)">
		<path d="M291.194 156.13C290.496 154.689 289.386 153.45 287.929 152.484C286.471 151.517 284.694 150.842 282.699 150.497C280.704 150.151 278.531 150.143 276.302 150.471C274.074 150.8 271.834 151.459 269.712 152.411L265.308 154.387L263.858 151.398C262.447 148.489 259.392 146.463 255.363 145.766C251.334 145.069 246.663 145.757 242.376 147.679C238.09 149.602 234.539 152.601 232.505 156.017C230.472 159.434 230.122 162.987 231.533 165.896L232.982 168.884L243.62 190.819L275.946 176.322L280.35 174.346C282.473 173.395 284.437 172.169 286.131 170.738C287.825 169.307 289.215 167.7 290.222 166.009C291.229 164.317 291.833 162.574 292 160.879C292.167 159.184 291.893 157.57 291.194 156.13Z" stroke="black" stroke-width="2" stroke-linecap="round" stroke-linejoin="round"/>
	</g>
	<defs>
		<clipPath id="clip0_611_7">
			<rect width="67.2534" height="65.3972" fill="white" transform="matrix(0.985346 0.170569 -0.511506 0.859279 240.076 135.375)"/>
		</clipPath>
	</defs>
</svg>