<svg width="210" height="203" viewBox="0 0 210 203" fill="none" xmlns="http://www.w3.org/2000/svg">
<path d="M86.956 3C78.3276 3 68.5 5.69263 60.2841 9.9239C53 11.5 44.8931 13.613 37.5 16.5C25.3797 21.233 22.5928 33.2976 15.5783 43.1586C5.64325 57.1253 3 73.5615 3 90.2412C3 107.699 9.66711 120.451 14.5174 136.631C24.2072 168.957 45.6593 190.237 79.0757 197.177C92.491 199.963 105.179 199.639 118.932 199.639C126.633 199.639 135.855 201.063 143.179 198.254C152.938 194.511 160.061 190.263 168.715 184.406C179.243 177.28 186.224 166.853 191.901 155.326C199.292 140.318 200.719 123.823 206.718 108.16C206.718 90.3439 209.24 83.5328 199.198 69.3464C189.155 55.1599 186.017 43.4435 171.821 33.4652C162.45 26.878 152.211 22.2729 142.118 16.8478C133.337 12.1278 123.367 6.95749 113.401 5.69263C108.539 5.0756 104.902 3 99.8374 3H86.956Z" stroke="#F46197" stroke-width="5" stroke-linecap="round"/>
</svg>
