<svg width="54" height="54" viewBox="0 0 54 54" fill="none" xmlns="http://www.w3.org/2000/svg">
<circle cx="27" cy="27" r="26" fill="#F8F4F4" stroke="#7C7777" stroke-width="2"/>
<path d="M24.4411 30.216C24.2705 30.216 24.1211 30.1627 23.9931 30.056C23.8651 29.928 23.8011 29.7787 23.8011 29.608C23.8011 29.48 23.8011 29.3627 23.8011 29.256C23.8011 29.128 23.8011 29 23.8011 28.872C23.9291 28.1253 24.1745 27.4533 24.5371 26.856C24.9211 26.2373 25.3585 25.672 25.8491 25.16C26.3611 24.648 26.8518 24.168 27.3211 23.72C27.7905 23.272 28.1851 22.8347 28.5051 22.408C28.8465 21.96 29.0278 21.512 29.0491 21.064C29.0918 20.5947 28.9958 20.2 28.7611 19.88C28.5478 19.56 28.2385 19.3147 27.8331 19.144C27.4491 18.9733 27.0331 18.888 26.5851 18.888C25.7318 18.888 25.0598 19.0907 24.5691 19.496C24.0785 19.9013 23.7265 20.4987 23.5131 21.288C23.4278 21.5227 23.3105 21.7147 23.1611 21.864C23.0118 21.992 22.7985 22.056 22.5211 22.056H18.6171C18.4038 22.056 18.2225 21.9813 18.0731 21.832C17.9238 21.6613 17.8491 21.448 17.8491 21.192C17.8705 20.3387 18.0731 19.5067 18.4571 18.696C18.8625 17.8853 19.4385 17.1493 20.1851 16.488C20.9531 15.8053 21.9025 15.272 23.0331 14.888C24.1638 14.4827 25.4651 14.28 26.9371 14.28C28.5371 14.28 29.8705 14.472 30.9371 14.856C32.0038 15.24 32.8358 15.7413 33.4331 16.36C34.0518 16.9787 34.4891 17.64 34.7451 18.344C35.0011 19.0267 35.1078 19.6667 35.0651 20.264C35.0438 21.032 34.8945 21.7253 34.6171 22.344C34.3398 22.9627 33.9878 23.5387 33.5611 24.072C33.1558 24.584 32.7185 25.0853 32.2491 25.576C31.8011 26.0453 31.3851 26.5253 31.0011 27.016C30.6171 27.4853 30.3291 27.9867 30.1371 28.52C30.0945 28.6693 30.0518 28.8187 30.0091 28.968C29.9665 29.096 29.9345 29.2347 29.9131 29.384C29.7638 29.6613 29.6251 29.8747 29.4971 30.024C29.3691 30.152 29.1771 30.216 28.9211 30.216H24.4411ZM24.5051 37C24.2705 37 24.0785 36.9253 23.9291 36.776C23.7798 36.6267 23.7051 36.4347 23.7051 36.2V32.552C23.7051 32.3387 23.7798 32.1573 23.9291 32.008C24.0785 31.8373 24.2705 31.752 24.5051 31.752H28.6011C28.8358 31.752 29.0278 31.8373 29.1771 32.008C29.3478 32.1573 29.4331 32.3387 29.4331 32.552V36.2C29.4331 36.4347 29.3478 36.6267 29.1771 36.776C29.0278 36.9253 28.8358 37 28.6011 37H24.5051Z" fill="#7C7777"/>
</svg>
