<svg width="210" height="203" viewBox="0 0 210 203" fill="none" xmlns="http://www.w3.org/2000/svg">
<path d="M86.956 3C78.3276 3 68.5 5.69263 60.2841 9.9239C53 11.5 44.8931 13.613 37.5 16.5C25.3797 21.233 22.5928 33.2976 15.5783 43.1586C5.64325 57.1253 3 73.5615 3 90.2412C3 107.699 9.66711 120.451 14.5174 136.631C24.2072 168.957 45.6593 190.237 79.0757 197.177C92.491 199.963 105.179 199.639 118.932 199.639C126.633 199.639 135.855 201.063 143.179 198.254C152.938 194.511 160.061 190.263 168.715 184.406C179.243 177.28 186.224 166.853 191.901 155.326C199.292 140.318 200.719 123.823 206.718 108.16C206.718 90.3439 209.24 83.5328 199.198 69.3464C189.155 55.1599 186.017 43.4435 171.821 33.4652C162.45 26.878 152.211 22.2729 142.118 16.8478C133.337 12.1278 123.367 6.95749 113.401 5.69263C108.539 5.0756 104.902 3 99.8374 3H86.956Z" stroke="#F46197" stroke-width="5" stroke-linecap="round"/>
<path d="M38.0208 102C37.7608 102 37.5701 101.939 37.4488 101.818C37.3275 101.697 37.2321 101.541 37.1628 101.35L33.4188 89.312C33.3841 89.2253 33.3668 89.1387 33.3668 89.052C33.3668 88.896 33.4275 88.766 33.5488 88.662C33.6701 88.5407 33.8088 88.48 33.9648 88.48H36.6428C36.8681 88.48 37.0415 88.5407 37.1628 88.662C37.3015 88.7833 37.3881 88.9047 37.4228 89.026L39.6068 96.462L41.9468 89.052C41.9815 88.9307 42.0595 88.8093 42.1808 88.688C42.3195 88.5493 42.5101 88.48 42.7528 88.48H44.4688C44.7115 88.48 44.8935 88.5493 45.0148 88.688C45.1535 88.8093 45.2401 88.9307 45.2748 89.052L47.6148 96.462L49.7988 89.026C49.8335 88.9047 49.9115 88.7833 50.0328 88.662C50.1715 88.5407 50.3535 88.48 50.5788 88.48H53.2568C53.4128 88.48 53.5428 88.5407 53.6468 88.662C53.7681 88.766 53.8288 88.896 53.8288 89.052C53.8288 89.1387 53.8201 89.2253 53.8028 89.312L50.0588 101.35C50.0068 101.541 49.9115 101.697 49.7728 101.818C49.6515 101.939 49.4608 102 49.2008 102H46.8608C46.6181 102 46.4275 101.939 46.2888 101.818C46.1501 101.697 46.0548 101.541 46.0028 101.35L43.6108 94.226L41.2188 101.35C41.1668 101.541 41.0715 101.697 40.9328 101.818C40.7941 101.939 40.6035 102 40.3608 102H38.0208ZM56.686 102C56.4953 102 56.3393 101.939 56.218 101.818C56.0966 101.697 56.036 101.541 56.036 101.35V84.19C56.036 83.9993 56.0966 83.8433 56.218 83.722C56.3393 83.6007 56.4953 83.54 56.686 83.54H60.014C60.2046 83.54 60.3606 83.6007 60.482 83.722C60.6033 83.8433 60.664 83.9993 60.664 84.19V89.988C61.132 89.4507 61.704 89.026 62.38 88.714C63.0733 88.3847 63.8706 88.22 64.772 88.22C65.7773 88.22 66.67 88.4453 67.45 88.896C68.2473 89.3467 68.8713 90.014 69.322 90.898C69.7726 91.7647 69.998 92.8307 69.998 94.096V101.35C69.998 101.541 69.9373 101.697 69.816 101.818C69.6946 101.939 69.5386 102 69.348 102H65.994C65.8206 102 65.6646 101.939 65.526 101.818C65.4046 101.697 65.344 101.541 65.344 101.35V94.252C65.344 93.4373 65.1446 92.8133 64.746 92.38C64.3646 91.9293 63.7926 91.704 63.03 91.704C62.3193 91.704 61.7473 91.9293 61.314 92.38C60.8806 92.8133 60.664 93.4373 60.664 94.252V101.35C60.664 101.541 60.6033 101.697 60.482 101.818C60.3606 101.939 60.2046 102 60.014 102H56.686ZM77.0021 102.26C76.0661 102.26 75.2254 102.087 74.4801 101.74C73.7521 101.376 73.1714 100.891 72.7381 100.284C72.3048 99.6773 72.0881 98.9927 72.0881 98.23C72.0881 96.9993 72.5908 96.0287 73.5961 95.318C74.6014 94.59 75.9361 94.096 77.6001 93.836L80.8501 93.342V92.978C80.8501 92.354 80.7201 91.8773 80.4601 91.548C80.2001 91.2187 79.7234 91.054 79.0301 91.054C78.5448 91.054 78.1461 91.1493 77.8341 91.34C77.5394 91.5307 77.3054 91.7907 77.1321 92.12C76.9761 92.3453 76.7594 92.458 76.4821 92.458H73.5701C73.3794 92.458 73.2321 92.406 73.1281 92.302C73.0241 92.1807 72.9808 92.042 72.9981 91.886C72.9981 91.574 73.1108 91.2187 73.3361 90.82C73.5788 90.404 73.9428 89.9967 74.4281 89.598C74.9134 89.1993 75.5374 88.87 76.3001 88.61C77.0628 88.35 77.9814 88.22 79.0561 88.22C80.1828 88.22 81.1448 88.35 81.9421 88.61C82.7394 88.87 83.3808 89.234 83.8661 89.702C84.3688 90.17 84.7414 90.7247 84.9841 91.366C85.2268 91.99 85.3481 92.6833 85.3481 93.446V101.35C85.3481 101.541 85.2788 101.697 85.1401 101.818C85.0188 101.939 84.8714 102 84.6981 102H81.6821C81.4914 102 81.3354 101.939 81.2141 101.818C81.0928 101.697 81.0321 101.541 81.0321 101.35V100.44C80.8068 100.769 80.5034 101.073 80.1221 101.35C79.7408 101.627 79.2901 101.844 78.7701 102C78.2674 102.173 77.6781 102.26 77.0021 102.26ZM78.2241 99.296C78.7268 99.296 79.1774 99.192 79.5761 98.984C79.9921 98.7587 80.3128 98.4207 80.5381 97.97C80.7808 97.502 80.9021 96.9213 80.9021 96.228V95.864L78.6921 96.254C77.8774 96.3927 77.2794 96.6093 76.8981 96.904C76.5341 97.1813 76.3521 97.5107 76.3521 97.892C76.3521 98.1867 76.4388 98.438 76.6121 98.646C76.7854 98.854 77.0108 99.0187 77.2881 99.14C77.5654 99.244 77.8774 99.296 78.2241 99.296ZM95.0965 102C93.9872 102 93.0252 101.827 92.2105 101.48C91.4132 101.116 90.7978 100.561 90.3645 99.816C89.9312 99.0533 89.7145 98.074 89.7145 96.878V91.886H87.6865C87.4958 91.886 87.3312 91.8253 87.1925 91.704C87.0712 91.5827 87.0105 91.4267 87.0105 91.236V89.13C87.0105 88.9393 87.0712 88.7833 87.1925 88.662C87.3312 88.5407 87.4958 88.48 87.6865 88.48H89.7145V84.19C89.7145 83.9993 89.7752 83.8433 89.8965 83.722C90.0352 83.6007 90.1912 83.54 90.3645 83.54H93.3805C93.5712 83.54 93.7272 83.6007 93.8485 83.722C93.9698 83.8433 94.0305 83.9993 94.0305 84.19V88.48H97.2805C97.4712 88.48 97.6272 88.5407 97.7485 88.662C97.8698 88.7833 97.9305 88.9393 97.9305 89.13V91.236C97.9305 91.4267 97.8698 91.5827 97.7485 91.704C97.6272 91.8253 97.4712 91.886 97.2805 91.886H94.0305V96.514C94.0305 97.1033 94.1432 97.5713 94.3685 97.918C94.5938 98.2647 94.9752 98.438 95.5125 98.438H97.5145C97.7052 98.438 97.8612 98.4987 97.9825 98.62C98.1038 98.7413 98.1645 98.8973 98.1645 99.088V101.35C98.1645 101.541 98.1038 101.697 97.9825 101.818C97.8612 101.939 97.7052 102 97.5145 102H95.0965ZM106.502 102C106.312 102 106.156 101.939 106.034 101.818C105.913 101.697 105.852 101.541 105.852 101.35V89.13C105.852 88.9393 105.913 88.7833 106.034 88.662C106.156 88.5407 106.312 88.48 106.502 88.48H109.57C109.744 88.48 109.891 88.5407 110.012 88.662C110.151 88.7833 110.22 88.9393 110.22 89.13V101.35C110.22 101.541 110.151 101.697 110.012 101.818C109.891 101.939 109.744 102 109.57 102H106.502ZM106.476 86.53C106.286 86.53 106.13 86.4693 106.008 86.348C105.887 86.2267 105.826 86.0707 105.826 85.88V83.566C105.826 83.3753 105.887 83.2193 106.008 83.098C106.13 82.9593 106.286 82.89 106.476 82.89H109.57C109.761 82.89 109.917 82.9593 110.038 83.098C110.177 83.2193 110.246 83.3753 110.246 83.566V85.88C110.246 86.0707 110.177 86.2267 110.038 86.348C109.917 86.4693 109.761 86.53 109.57 86.53H106.476ZM119.313 102.26C118.186 102.26 117.224 102.139 116.427 101.896C115.647 101.636 115.006 101.324 114.503 100.96C114.018 100.596 113.654 100.223 113.411 99.842C113.168 99.4433 113.038 99.1053 113.021 98.828C113.004 98.6373 113.064 98.4813 113.203 98.36C113.342 98.2213 113.489 98.152 113.645 98.152H116.609C116.661 98.152 116.704 98.1607 116.739 98.178C116.774 98.1953 116.826 98.23 116.895 98.282C117.12 98.4033 117.346 98.5593 117.571 98.75C117.796 98.9233 118.056 99.0793 118.351 99.218C118.646 99.3567 119.001 99.426 119.417 99.426C119.902 99.426 120.31 99.3307 120.639 99.14C120.968 98.9493 121.133 98.6633 121.133 98.282C121.133 98.0047 121.055 97.7793 120.899 97.606C120.743 97.4153 120.422 97.2333 119.937 97.06C119.469 96.8867 118.758 96.7133 117.805 96.54C116.904 96.332 116.115 96.0633 115.439 95.734C114.763 95.3873 114.243 94.9453 113.879 94.408C113.515 93.8533 113.333 93.186 113.333 92.406C113.333 91.7127 113.558 91.0453 114.009 90.404C114.46 89.7627 115.118 89.2427 115.985 88.844C116.852 88.428 117.918 88.22 119.183 88.22C120.188 88.22 121.055 88.3413 121.783 88.584C122.528 88.8093 123.152 89.104 123.655 89.468C124.175 89.832 124.565 90.2047 124.825 90.586C125.085 90.9673 125.224 91.314 125.241 91.626C125.258 91.7993 125.206 91.9553 125.085 92.094C124.964 92.2153 124.825 92.276 124.669 92.276H121.965C121.896 92.276 121.826 92.2673 121.757 92.25C121.688 92.2153 121.627 92.1807 121.575 92.146C121.367 92.042 121.159 91.9033 120.951 91.73C120.743 91.5567 120.5 91.4007 120.223 91.262C119.946 91.1233 119.599 91.054 119.183 91.054C118.715 91.054 118.351 91.158 118.091 91.366C117.831 91.574 117.701 91.8427 117.701 92.172C117.701 92.3973 117.77 92.6053 117.909 92.796C118.065 92.9867 118.368 93.16 118.819 93.316C119.287 93.472 120.006 93.6453 120.977 93.836C122.173 94.0267 123.126 94.3387 123.837 94.772C124.548 95.188 125.05 95.682 125.345 96.254C125.64 96.8087 125.787 97.398 125.787 98.022C125.787 98.854 125.536 99.5907 125.033 100.232C124.548 100.873 123.82 101.376 122.849 101.74C121.878 102.087 120.7 102.26 119.313 102.26ZM134.305 102C134.114 102 133.958 101.939 133.837 101.818C133.716 101.697 133.655 101.541 133.655 101.35V89.13C133.655 88.9393 133.716 88.7833 133.837 88.662C133.958 88.5407 134.114 88.48 134.305 88.48H137.139C137.33 88.48 137.486 88.5407 137.607 88.662C137.728 88.7833 137.789 88.9393 137.789 89.13V90.014C138.136 89.546 138.621 89.1387 139.245 88.792C139.869 88.428 140.606 88.2373 141.455 88.22C143.448 88.1853 144.818 88.9393 145.563 90.482C145.962 89.8233 146.534 89.286 147.279 88.87C148.024 88.4367 148.839 88.22 149.723 88.22C150.624 88.22 151.43 88.428 152.141 88.844C152.869 89.2427 153.45 89.8667 153.883 90.716C154.316 91.548 154.533 92.6313 154.533 93.966V101.35C154.533 101.541 154.464 101.697 154.325 101.818C154.204 101.939 154.056 102 153.883 102H150.867C150.676 102 150.512 101.939 150.373 101.818C150.252 101.697 150.191 101.541 150.191 101.35V94.148C150.191 93.5413 150.104 93.0647 149.931 92.718C149.758 92.354 149.524 92.094 149.229 91.938C148.934 91.782 148.596 91.704 148.215 91.704C147.903 91.704 147.591 91.782 147.279 91.938C146.984 92.094 146.742 92.354 146.551 92.718C146.378 93.0647 146.291 93.5413 146.291 94.148V101.35C146.291 101.541 146.23 101.697 146.109 101.818C145.988 101.939 145.832 102 145.641 102H142.625C142.434 102 142.278 101.939 142.157 101.818C142.036 101.697 141.975 101.541 141.975 101.35V94.148C141.975 93.5413 141.88 93.0647 141.689 92.718C141.498 92.354 141.256 92.094 140.961 91.938C140.666 91.782 140.337 91.704 139.973 91.704C139.661 91.704 139.349 91.782 139.037 91.938C138.742 92.094 138.5 92.354 138.309 92.718C138.136 93.0647 138.049 93.5327 138.049 94.122V101.35C138.049 101.541 137.98 101.697 137.841 101.818C137.72 101.939 137.564 102 137.373 102H134.305ZM159.486 106.94C159.33 106.94 159.2 106.888 159.096 106.784C158.992 106.68 158.94 106.55 158.94 106.394C158.94 106.359 158.94 106.307 158.94 106.238C158.957 106.186 158.983 106.125 159.018 106.056L161.046 101.168L156.054 89.364C156.002 89.2427 155.976 89.1387 155.976 89.052C156.01 88.896 156.08 88.766 156.184 88.662C156.288 88.5407 156.418 88.48 156.574 88.48H159.538C159.763 88.48 159.928 88.5407 160.032 88.662C160.153 88.766 160.231 88.8873 160.266 89.026L163.256 96.592L166.298 89.026C166.367 88.8873 166.454 88.766 166.558 88.662C166.679 88.5407 166.852 88.48 167.078 88.48H169.99C170.146 88.48 170.276 88.5407 170.38 88.662C170.501 88.766 170.562 88.8873 170.562 89.026C170.562 89.1127 170.536 89.2253 170.484 89.364L163.126 106.394C163.074 106.533 162.987 106.654 162.866 106.758C162.744 106.879 162.571 106.94 162.346 106.94H159.486ZM59.9106 133C59.7199 133 59.5639 132.939 59.4426 132.818C59.3212 132.697 59.2606 132.541 59.2606 132.35V120.13C59.2606 119.939 59.3212 119.783 59.4426 119.662C59.5639 119.541 59.7199 119.48 59.9106 119.48H62.7446C62.9352 119.48 63.0912 119.541 63.2126 119.662C63.3339 119.783 63.3946 119.939 63.3946 120.13V121.014C63.7412 120.546 64.2266 120.139 64.8506 119.792C65.4746 119.428 66.2112 119.237 67.0606 119.22C69.0539 119.185 70.4232 119.939 71.1686 121.482C71.5672 120.823 72.1392 120.286 72.8846 119.87C73.6299 119.437 74.4446 119.22 75.3286 119.22C76.2299 119.22 77.0359 119.428 77.7466 119.844C78.4746 120.243 79.0552 120.867 79.4886 121.716C79.9219 122.548 80.1386 123.631 80.1386 124.966V132.35C80.1386 132.541 80.0692 132.697 79.9306 132.818C79.8092 132.939 79.6619 133 79.4886 133H76.4726C76.2819 133 76.1172 132.939 75.9786 132.818C75.8572 132.697 75.7966 132.541 75.7966 132.35V125.148C75.7966 124.541 75.7099 124.065 75.5366 123.718C75.3632 123.354 75.1292 123.094 74.8346 122.938C74.5399 122.782 74.2019 122.704 73.8206 122.704C73.5086 122.704 73.1966 122.782 72.8846 122.938C72.5899 123.094 72.3472 123.354 72.1566 123.718C71.9832 124.065 71.8966 124.541 71.8966 125.148V132.35C71.8966 132.541 71.8359 132.697 71.7146 132.818C71.5932 132.939 71.4372 133 71.2466 133H68.2306C68.0399 133 67.8839 132.939 67.7626 132.818C67.6412 132.697 67.5806 132.541 67.5806 132.35V125.148C67.5806 124.541 67.4852 124.065 67.2946 123.718C67.1039 123.354 66.8612 123.094 66.5666 122.938C66.2719 122.782 65.9426 122.704 65.5786 122.704C65.2666 122.704 64.9546 122.782 64.6426 122.938C64.3479 123.094 64.1052 123.354 63.9146 123.718C63.7412 124.065 63.6546 124.533 63.6546 125.122V132.35C63.6546 132.541 63.5852 132.697 63.4466 132.818C63.3252 132.939 63.1692 133 62.9786 133H59.9106ZM89.4476 133.26C87.9916 133.26 86.7609 133.026 85.7556 132.558C84.7676 132.09 84.0049 131.423 83.4676 130.556C82.9476 129.672 82.6529 128.623 82.5836 127.41C82.5662 127.063 82.5576 126.673 82.5576 126.24C82.5576 125.789 82.5662 125.399 82.5836 125.07C82.6529 123.839 82.9649 122.791 83.5196 121.924C84.0742 121.057 84.8456 120.39 85.8336 119.922C86.8389 119.454 88.0436 119.22 89.4476 119.22C90.8689 119.22 92.0736 119.454 93.0616 119.922C94.0669 120.39 94.8469 121.057 95.4016 121.924C95.9562 122.791 96.2682 123.839 96.3376 125.07C96.3549 125.399 96.3636 125.789 96.3636 126.24C96.3636 126.673 96.3549 127.063 96.3376 127.41C96.2682 128.623 95.9649 129.672 95.4276 130.556C94.9076 131.423 94.1449 132.09 93.1396 132.558C92.1516 133.026 90.9209 133.26 89.4476 133.26ZM89.4476 130.088C90.2276 130.088 90.7909 129.854 91.1376 129.386C91.5016 128.918 91.7096 128.216 91.7616 127.28C91.7789 127.02 91.7876 126.673 91.7876 126.24C91.7876 125.807 91.7789 125.46 91.7616 125.2C91.7096 124.281 91.5016 123.588 91.1376 123.12C90.7909 122.635 90.2276 122.392 89.4476 122.392C88.6849 122.392 88.1216 122.635 87.7576 123.12C87.3936 123.588 87.1942 124.281 87.1596 125.2C87.1422 125.46 87.1336 125.807 87.1336 126.24C87.1336 126.673 87.1422 127.02 87.1596 127.28C87.1942 128.216 87.3936 128.918 87.7576 129.386C88.1216 129.854 88.6849 130.088 89.4476 130.088ZM105.317 133.26C103.861 133.26 102.63 133.026 101.625 132.558C100.637 132.09 99.8741 131.423 99.3367 130.556C98.8167 129.672 98.5221 128.623 98.4527 127.41C98.4354 127.063 98.4267 126.673 98.4267 126.24C98.4267 125.789 98.4354 125.399 98.4527 125.07C98.5221 123.839 98.8341 122.791 99.3887 121.924C99.9434 121.057 100.715 120.39 101.703 119.922C102.708 119.454 103.913 119.22 105.317 119.22C106.738 119.22 107.943 119.454 108.931 119.922C109.936 120.39 110.716 121.057 111.271 121.924C111.825 122.791 112.137 123.839 112.207 125.07C112.224 125.399 112.233 125.789 112.233 126.24C112.233 126.673 112.224 127.063 112.207 127.41C112.137 128.623 111.834 129.672 111.297 130.556C110.777 131.423 110.014 132.09 109.009 132.558C108.021 133.026 106.79 133.26 105.317 133.26ZM105.317 130.088C106.097 130.088 106.66 129.854 107.007 129.386C107.371 128.918 107.579 128.216 107.631 127.28C107.648 127.02 107.657 126.673 107.657 126.24C107.657 125.807 107.648 125.46 107.631 125.2C107.579 124.281 107.371 123.588 107.007 123.12C106.66 122.635 106.097 122.392 105.317 122.392C104.554 122.392 103.991 122.635 103.627 123.12C103.263 123.588 103.063 124.281 103.029 125.2C103.011 125.46 103.003 125.807 103.003 126.24C103.003 126.673 103.011 127.02 103.029 127.28C103.063 128.216 103.263 128.918 103.627 129.386C103.991 129.854 104.554 130.088 105.317 130.088ZM119.834 133.26C119.002 133.26 118.248 133.13 117.572 132.87C116.913 132.593 116.341 132.194 115.856 131.674C115.388 131.137 115.024 130.495 114.764 129.75C114.504 128.987 114.357 128.121 114.322 127.15C114.305 126.803 114.296 126.5 114.296 126.24C114.296 125.963 114.305 125.659 114.322 125.33C114.357 124.394 114.504 123.553 114.764 122.808C115.024 122.063 115.388 121.421 115.856 120.884C116.324 120.347 116.896 119.939 117.572 119.662C118.248 119.367 119.002 119.22 119.834 119.22C120.701 119.22 121.446 119.367 122.07 119.662C122.694 119.939 123.223 120.303 123.656 120.754V115.19C123.656 114.999 123.717 114.843 123.838 114.722C123.959 114.601 124.115 114.54 124.306 114.54H127.478C127.651 114.54 127.799 114.601 127.92 114.722C128.059 114.843 128.128 114.999 128.128 115.19V132.35C128.128 132.541 128.059 132.697 127.92 132.818C127.799 132.939 127.651 133 127.478 133H124.54C124.349 133 124.193 132.939 124.072 132.818C123.951 132.697 123.89 132.541 123.89 132.35V131.518C123.474 132.021 122.937 132.437 122.278 132.766C121.619 133.095 120.805 133.26 119.834 133.26ZM121.238 129.776C121.827 129.776 122.287 129.655 122.616 129.412C122.963 129.152 123.214 128.823 123.37 128.424C123.543 128.025 123.639 127.592 123.656 127.124C123.673 126.777 123.682 126.448 123.682 126.136C123.682 125.824 123.673 125.503 123.656 125.174C123.639 124.741 123.543 124.342 123.37 123.978C123.197 123.597 122.937 123.293 122.59 123.068C122.243 122.825 121.793 122.704 121.238 122.704C120.666 122.704 120.207 122.825 119.86 123.068C119.531 123.311 119.297 123.64 119.158 124.056C119.019 124.472 118.933 124.931 118.898 125.434C118.846 125.971 118.846 126.509 118.898 127.046C118.933 127.549 119.019 128.008 119.158 128.424C119.297 128.84 119.531 129.169 119.86 129.412C120.207 129.655 120.666 129.776 121.238 129.776ZM135.844 127.488C135.705 127.488 135.584 127.445 135.48 127.358C135.376 127.254 135.324 127.133 135.324 126.994C135.324 126.89 135.324 126.795 135.324 126.708C135.324 126.604 135.324 126.5 135.324 126.396C135.428 125.789 135.627 125.243 135.922 124.758C136.234 124.255 136.589 123.796 136.988 123.38C137.404 122.964 137.802 122.574 138.184 122.21C138.565 121.846 138.886 121.491 139.146 121.144C139.423 120.78 139.57 120.416 139.588 120.052C139.622 119.671 139.544 119.35 139.354 119.09C139.18 118.83 138.929 118.631 138.6 118.492C138.288 118.353 137.95 118.284 137.586 118.284C136.892 118.284 136.346 118.449 135.948 118.778C135.549 119.107 135.263 119.593 135.09 120.234C135.02 120.425 134.925 120.581 134.804 120.702C134.682 120.806 134.509 120.858 134.284 120.858H131.112C130.938 120.858 130.791 120.797 130.67 120.676C130.548 120.537 130.488 120.364 130.488 120.156C130.505 119.463 130.67 118.787 130.982 118.128C131.311 117.469 131.779 116.871 132.386 116.334C133.01 115.779 133.781 115.346 134.7 115.034C135.618 114.705 136.676 114.54 137.872 114.54C139.172 114.54 140.255 114.696 141.122 115.008C141.988 115.32 142.664 115.727 143.15 116.23C143.652 116.733 144.008 117.27 144.216 117.842C144.424 118.397 144.51 118.917 144.476 119.402C144.458 120.026 144.337 120.589 144.112 121.092C143.886 121.595 143.6 122.063 143.254 122.496C142.924 122.912 142.569 123.319 142.188 123.718C141.824 124.099 141.486 124.489 141.174 124.888C140.862 125.269 140.628 125.677 140.472 126.11C140.437 126.231 140.402 126.353 140.368 126.474C140.333 126.578 140.307 126.691 140.29 126.812C140.168 127.037 140.056 127.211 139.952 127.332C139.848 127.436 139.692 127.488 139.484 127.488H135.844ZM135.896 133C135.705 133 135.549 132.939 135.428 132.818C135.306 132.697 135.246 132.541 135.246 132.35V129.386C135.246 129.213 135.306 129.065 135.428 128.944C135.549 128.805 135.705 128.736 135.896 128.736H139.224C139.414 128.736 139.57 128.805 139.692 128.944C139.83 129.065 139.9 129.213 139.9 129.386V132.35C139.9 132.541 139.83 132.697 139.692 132.818C139.57 132.939 139.414 133 139.224 133H135.896Z" fill="#484747"/>
</svg>
