<svg width="210" height="203" viewBox="0 0 210 203" fill="none" xmlns="http://www.w3.org/2000/svg">
<path d="M63.2744 111C63.0397 111 62.8477 110.925 62.6984 110.776C62.549 110.627 62.4744 110.435 62.4744 110.2V89.4C62.4744 89.1653 62.549 88.9733 62.6984 88.824C62.8477 88.6747 63.0397 88.6 63.2744 88.6H67.5624C67.797 88.6 67.989 88.6747 68.1384 88.824C68.2877 88.9733 68.3624 89.1653 68.3624 89.4V110.2C68.3624 110.435 68.2877 110.627 68.1384 110.776C67.989 110.925 67.797 111 67.5624 111H63.2744ZM73.6494 111C73.436 111 73.244 110.925 73.0734 110.776C72.924 110.627 72.8494 110.435 72.8494 110.2V89.4C72.8494 89.1653 72.924 88.9733 73.0734 88.824C73.244 88.6747 73.436 88.6 73.6494 88.6H77.1054C77.4467 88.6 77.7027 88.696 77.8734 88.888C78.0654 89.0587 78.1827 89.1973 78.2254 89.304L83.8574 99.416L89.4894 89.304C89.5534 89.1973 89.66 89.0587 89.8094 88.888C89.98 88.696 90.2467 88.6 90.6094 88.6H94.0334C94.268 88.6 94.46 88.6747 94.6094 88.824C94.78 88.9733 94.8654 89.1653 94.8654 89.4V110.2C94.8654 110.435 94.78 110.627 94.6094 110.776C94.46 110.925 94.268 111 94.0334 111H90.2254C89.9907 111 89.788 110.925 89.6174 110.776C89.468 110.627 89.3934 110.435 89.3934 110.2V98.2L85.7774 104.888C85.692 105.08 85.564 105.251 85.3934 105.4C85.2227 105.549 84.988 105.624 84.6894 105.624H83.0254C82.7267 105.624 82.492 105.549 82.3214 105.4C82.1507 105.251 82.012 105.08 81.9054 104.888L78.2894 98.2V110.2C78.2894 110.435 78.2147 110.627 78.0654 110.776C77.916 110.925 77.724 111 77.4894 111H73.6494ZM103.958 111.32C102.806 111.32 101.771 111.107 100.854 110.68C99.9581 110.232 99.2435 109.635 98.7101 108.888C98.1768 108.141 97.9101 107.299 97.9101 106.36C97.9101 104.845 98.5288 103.651 99.7661 102.776C101.003 101.88 102.646 101.272 104.694 100.952L108.694 100.344V99.896C108.694 99.128 108.534 98.5413 108.214 98.136C107.894 97.7307 107.307 97.528 106.454 97.528C105.857 97.528 105.366 97.6453 104.982 97.88C104.619 98.1147 104.331 98.4347 104.118 98.84C103.926 99.1173 103.659 99.256 103.318 99.256H99.7341C99.4995 99.256 99.3181 99.192 99.1901 99.064C99.0621 98.9147 99.0088 98.744 99.0301 98.552C99.0301 98.168 99.1688 97.7307 99.4461 97.24C99.7448 96.728 100.193 96.2267 100.79 95.736C101.387 95.2453 102.155 94.84 103.094 94.52C104.033 94.2 105.163 94.04 106.486 94.04C107.873 94.04 109.057 94.2 110.038 94.52C111.019 94.84 111.809 95.288 112.406 95.864C113.025 96.44 113.483 97.1227 113.782 97.912C114.081 98.68 114.23 99.5333 114.23 100.472V110.2C114.23 110.435 114.145 110.627 113.974 110.776C113.825 110.925 113.643 111 113.43 111H109.718C109.483 111 109.291 110.925 109.142 110.776C108.993 110.627 108.918 110.435 108.918 110.2V109.08C108.641 109.485 108.267 109.859 107.798 110.2C107.329 110.541 106.774 110.808 106.134 111C105.515 111.213 104.79 111.32 103.958 111.32ZM105.462 107.672C106.081 107.672 106.635 107.544 107.126 107.288C107.638 107.011 108.033 106.595 108.31 106.04C108.609 105.464 108.758 104.749 108.758 103.896V103.448L106.038 103.928C105.035 104.099 104.299 104.365 103.83 104.728C103.382 105.069 103.158 105.475 103.158 105.944C103.158 106.307 103.265 106.616 103.478 106.872C103.691 107.128 103.969 107.331 104.31 107.48C104.651 107.608 105.035 107.672 105.462 107.672ZM126.228 111C124.863 111 123.679 110.787 122.676 110.36C121.695 109.912 120.937 109.229 120.404 108.312C119.871 107.373 119.604 106.168 119.604 104.696V98.552H117.108C116.873 98.552 116.671 98.4773 116.5 98.328C116.351 98.1787 116.276 97.9867 116.276 97.752V95.16C116.276 94.9253 116.351 94.7333 116.5 94.584C116.671 94.4347 116.873 94.36 117.108 94.36H119.604V89.08C119.604 88.8453 119.679 88.6533 119.828 88.504C119.999 88.3547 120.191 88.28 120.404 88.28H124.116C124.351 88.28 124.543 88.3547 124.692 88.504C124.841 88.6533 124.916 88.8453 124.916 89.08V94.36H128.916C129.151 94.36 129.343 94.4347 129.492 94.584C129.641 94.7333 129.716 94.9253 129.716 95.16V97.752C129.716 97.9867 129.641 98.1787 129.492 98.328C129.343 98.4773 129.151 98.552 128.916 98.552H124.916V104.248C124.916 104.973 125.055 105.549 125.332 105.976C125.609 106.403 126.079 106.616 126.74 106.616H129.204C129.439 106.616 129.631 106.691 129.78 106.84C129.929 106.989 130.004 107.181 130.004 107.416V110.2C130.004 110.435 129.929 110.627 129.78 110.776C129.631 110.925 129.439 111 129.204 111H126.228ZM140.334 111.32C137.816 111.32 135.811 110.637 134.318 109.272C132.824 107.907 132.046 105.88 131.982 103.192C131.982 103.043 131.982 102.851 131.982 102.616C131.982 102.381 131.982 102.2 131.982 102.072C132.046 100.387 132.419 98.9467 133.102 97.752C133.806 96.536 134.766 95.6187 135.982 95C137.219 94.36 138.659 94.04 140.302 94.04C142.179 94.04 143.726 94.4133 144.942 95.16C146.179 95.9067 147.107 96.92 147.726 98.2C148.344 99.48 148.654 100.941 148.654 102.584V103.352C148.654 103.587 148.568 103.779 148.398 103.928C148.248 104.077 148.067 104.152 147.854 104.152H137.614C137.614 104.173 137.614 104.205 137.614 104.248C137.614 104.291 137.614 104.333 137.614 104.376C137.635 104.995 137.742 105.56 137.934 106.072C138.126 106.584 138.424 106.989 138.83 107.288C139.235 107.587 139.726 107.736 140.302 107.736C140.728 107.736 141.08 107.672 141.358 107.544C141.656 107.395 141.902 107.235 142.094 107.064C142.286 106.872 142.435 106.712 142.542 106.584C142.734 106.371 142.883 106.243 142.99 106.2C143.118 106.136 143.31 106.104 143.566 106.104H147.534C147.747 106.104 147.918 106.168 148.046 106.296C148.195 106.403 148.259 106.563 148.238 106.776C148.216 107.139 148.035 107.576 147.694 108.088C147.352 108.6 146.851 109.112 146.19 109.624C145.55 110.115 144.739 110.52 143.758 110.84C142.776 111.16 141.635 111.32 140.334 111.32ZM137.614 100.984H143.022V100.92C143.022 100.237 142.915 99.64 142.702 99.128C142.51 98.616 142.2 98.2213 141.774 97.944C141.368 97.6667 140.878 97.528 140.302 97.528C139.726 97.528 139.235 97.6667 138.83 97.944C138.446 98.2213 138.147 98.616 137.934 99.128C137.72 99.64 137.614 100.237 137.614 100.92V100.984Z" fill="#484747"/>
<path d="M86.956 3C78.3276 3 68.5 5.69263 60.2841 9.9239C53 11.5 44.8931 13.613 37.5 16.5C25.3797 21.233 22.5928 33.2976 15.5783 43.1586C5.64325 57.1253 3 73.5615 3 90.2412C3 107.699 9.66711 120.451 14.5174 136.631C24.2072 168.957 45.6593 190.237 79.0757 197.177C92.491 199.963 105.179 199.639 118.932 199.639C126.633 199.639 135.855 201.063 143.179 198.254C152.938 194.511 160.061 190.263 168.715 184.406C179.243 177.28 186.224 166.853 191.901 155.326C199.292 140.318 200.719 123.823 206.718 108.16C206.718 90.3439 209.24 83.5328 199.198 69.3464C189.155 55.1599 186.017 43.4435 171.821 33.4652C162.45 26.878 152.211 22.2729 142.118 16.8478C133.337 12.1278 123.367 6.95749 113.401 5.69263C108.539 5.0756 104.902 3 99.8374 3H86.956Z" stroke="#F46197" stroke-width="5" stroke-linecap="round"/>
</svg>
