<svg width="128" height="128" viewBox="0 0 128 128" fill="none" xmlns="http://www.w3.org/2000/svg">
<rect width="128" height="128" fill="white"/>
<path d="M24.583 84.123C22.217 84.123 20.098 83.772 18.226 83.07C16.38 82.394 14.924 81.393 13.858 80.067C12.792 78.741 12.259 77.129 12.259 75.231C12.259 73.931 12.558 72.488 13.156 70.902C13.494 70.018 14.001 69.199 14.677 68.445C15.379 67.665 16.094 67.028 16.822 66.534C17.55 66.04 18.122 65.78 18.538 65.754H18.655C18.889 65.754 19.006 65.793 19.006 65.871C19.006 66.001 18.837 66.144 18.499 66.3C18.083 66.482 17.55 66.872 16.9 67.47C16.276 68.068 15.678 68.809 15.106 69.693C14.534 70.551 14.105 71.526 13.819 72.618C13.715 72.982 13.637 73.346 13.585 73.71C13.559 74.074 13.546 74.425 13.546 74.763C13.546 76.167 13.871 77.376 14.521 78.39C15.197 79.404 16.081 80.236 17.173 80.886C18.291 81.562 19.513 82.056 20.839 82.368C22.165 82.706 23.491 82.875 24.817 82.875C25.415 82.875 26 82.836 26.572 82.758C27.17 82.706 27.729 82.615 28.249 82.485C30.537 81.913 32.617 81.042 34.489 79.872C36.361 78.702 38.038 77.363 39.52 75.855C41.028 74.347 42.341 72.787 43.459 71.175C44.577 69.537 45.526 67.964 46.306 66.456C47.086 64.948 47.684 63.609 48.1 62.439C48.88 60.359 49.66 58.448 50.44 56.706C51.246 54.964 51.974 53.495 52.624 52.299C53.274 51.077 53.742 50.232 54.028 49.764C52.624 50.076 51.116 50.44 49.504 50.856C47.918 51.246 46.345 51.753 44.785 52.377C43.225 52.975 41.756 53.716 40.378 54.6C39.026 55.484 37.869 56.55 36.907 57.798C35.945 59.046 35.269 60.515 34.879 62.205C34.749 62.803 34.684 63.323 34.684 63.765C34.684 64.909 34.957 65.845 35.503 66.573C36.075 67.275 36.842 67.626 37.804 67.626C38.35 67.626 38.909 67.509 39.481 67.275C40.443 66.885 41.184 66.378 41.704 65.754C42.25 65.104 42.627 64.441 42.835 63.765C43.043 63.063 43.147 62.439 43.147 61.893C43.147 61.113 43.03 60.632 42.796 60.45C42.796 60.424 42.783 60.411 42.757 60.411C42.757 60.411 42.757 60.398 42.757 60.372C42.757 60.242 42.809 60.112 42.913 59.982C43.043 59.852 43.173 59.787 43.303 59.787C43.433 59.787 43.537 59.878 43.615 60.06C43.927 60.684 44.083 61.334 44.083 62.01C44.083 62.842 43.875 63.674 43.459 64.506C43.069 65.338 42.523 66.079 41.821 66.729C41.145 67.379 40.391 67.86 39.559 68.172C38.779 68.484 37.999 68.64 37.219 68.64C35.815 68.64 34.606 68.172 33.592 67.236C32.604 66.274 32.11 65.039 32.11 63.531C32.11 63.063 32.162 62.621 32.266 62.205C32.682 60.359 33.475 58.747 34.645 57.369C35.815 55.991 37.232 54.808 38.896 53.82C40.56 52.832 42.315 52.013 44.161 51.363C46.033 50.687 47.879 50.141 49.699 49.725C51.519 49.309 53.17 48.971 54.652 48.711C54.756 48.503 54.964 48.178 55.276 47.736C55.588 47.268 55.952 46.826 56.368 46.41C56.784 45.968 57.2 45.682 57.616 45.552C57.928 45.448 58.266 45.396 58.63 45.396C58.994 45.396 59.293 45.487 59.527 45.669C59.761 45.851 59.878 46.137 59.878 46.527C59.878 47.281 59.553 47.853 58.903 48.243C58.279 48.607 57.59 48.932 56.836 49.218C56.602 49.218 56.316 49.283 55.978 49.413C55.666 49.517 55.419 49.569 55.237 49.569C54.275 51.311 53.482 53.027 52.858 54.717C52.234 56.407 51.662 58.071 51.142 59.709C50.648 61.321 50.128 62.933 49.582 64.545C49.036 66.131 48.36 67.73 47.554 69.342C46.748 70.928 45.721 72.527 44.473 74.139C42.341 76.895 39.936 79.066 37.258 80.652C34.606 82.238 31.863 83.265 29.029 83.733C28.249 83.863 27.482 83.954 26.728 84.006C25.974 84.084 25.259 84.123 24.583 84.123ZM55.9 48.555C56.914 48.347 57.59 48.113 57.928 47.853C58.292 47.593 58.474 47.359 58.474 47.151C58.474 46.995 58.422 46.878 58.318 46.8C58.214 46.696 58.11 46.644 58.006 46.644C57.876 46.592 57.681 46.683 57.421 46.917C57.161 47.125 56.888 47.398 56.602 47.736C56.342 48.048 56.108 48.321 55.9 48.555ZM47.2807 78.195C48.2427 76.349 49.1527 74.503 50.0107 72.657C50.8687 70.785 51.7397 69.017 52.6237 67.353C53.1437 66.417 53.5727 65.767 53.9107 65.403C54.2747 65.013 54.7557 64.818 55.3537 64.818C55.5617 64.818 55.7827 64.857 56.0167 64.935C56.2507 64.987 56.4847 65.013 56.7187 65.013C56.8747 65.013 56.9917 65 57.0697 64.974C56.7057 65.182 56.2377 65.702 55.6657 66.534C55.0937 67.34 54.5087 68.276 53.9107 69.342C53.3127 70.408 52.7797 71.409 52.3117 72.345C52.8057 71.747 53.3127 71.149 53.8327 70.551C54.3787 69.953 54.9767 69.381 55.6267 68.835C56.1987 68.341 56.7967 67.808 57.4207 67.236C58.0707 66.638 58.7077 66.131 59.3317 65.715C59.9557 65.299 60.5017 65.091 60.9697 65.091C61.1517 65.091 61.2687 65.104 61.3207 65.13C61.8147 65.338 62.0617 65.676 62.0617 66.144C62.0617 66.3 61.9967 66.534 61.8667 66.846C61.5287 67.73 61.0867 68.64 60.5407 69.576C60.0207 70.486 59.5267 71.409 59.0587 72.345C59.4487 71.877 59.9297 71.305 60.5017 70.629C61.0997 69.953 61.6977 69.355 62.2957 68.835C62.8677 68.315 63.5957 67.769 64.4797 67.197C65.3637 66.625 66.2347 66.131 67.0927 65.715C67.9507 65.299 68.6397 65.091 69.1597 65.091C69.3417 65.091 69.4717 65.104 69.5497 65.13C69.5497 65.13 69.4067 65.39 69.1207 65.91C68.8347 66.404 68.4707 67.067 68.0287 67.899C67.6127 68.705 67.1837 69.576 66.7417 70.512C66.2997 71.422 65.8967 72.306 65.5327 73.164C65.1947 73.996 64.9737 74.698 64.8697 75.27C64.7917 75.608 64.7527 75.92 64.7527 76.206C64.7527 76.622 64.8307 76.895 64.9867 77.025C65.1427 77.155 65.3117 77.22 65.4937 77.22C66.0137 77.22 66.5467 76.947 67.0927 76.401C67.6387 75.855 68.1587 75.205 68.6527 74.451C69.1727 73.671 69.6277 72.917 70.0177 72.189C70.4077 71.435 70.6937 70.863 70.8757 70.473C71.0317 70.187 71.1877 70.044 71.3437 70.044C71.4997 70.044 71.5777 70.148 71.5777 70.356C71.5777 70.486 71.5387 70.629 71.4607 70.785C71.1487 71.383 70.7717 72.098 70.3297 72.93C69.9137 73.762 69.4327 74.581 68.8867 75.387C68.3407 76.167 67.7297 76.83 67.0537 77.376C66.4037 77.896 65.7017 78.156 64.9477 78.156C64.4017 78.156 63.8427 77.974 63.2707 77.61C62.7247 77.246 62.4517 76.57 62.4517 75.582C62.4517 75.036 62.5687 74.373 62.8027 73.593C62.9847 73.073 63.2577 72.475 63.6217 71.799C64.0117 71.123 64.4797 70.343 65.0257 69.459C65.2857 69.017 65.4157 68.666 65.4157 68.406C65.4157 68.094 65.2597 67.938 64.9477 67.938C64.6877 67.938 64.3237 68.068 63.8557 68.328C63.4137 68.588 62.8547 69.043 62.1787 69.693C61.7627 70.083 61.2687 70.629 60.6967 71.331C60.1507 72.007 59.5917 72.748 59.0197 73.554C58.4477 74.36 57.9537 75.153 57.5377 75.933C57.1217 76.713 56.8487 77.402 56.7187 78C56.3287 78 56.0167 77.844 55.7827 77.532C55.5487 77.194 55.4317 76.804 55.4317 76.362C55.4317 76.284 55.4317 76.206 55.4317 76.128C55.4317 76.05 55.4447 75.959 55.4707 75.855C55.6007 75.049 55.8087 74.295 56.0947 73.593C56.3807 72.891 56.7057 72.163 57.0697 71.409C57.3557 70.863 57.6417 70.278 57.9277 69.654C58.2137 69.004 58.3567 68.51 58.3567 68.172C58.3567 67.964 58.2787 67.86 58.1227 67.86C57.9407 67.86 57.6417 68.003 57.2257 68.289C56.8097 68.549 56.2377 69.017 55.5097 69.693C54.8597 70.317 54.0667 71.214 53.1307 72.384C52.2207 73.554 51.2197 75.218 50.1277 77.376C49.9717 77.662 49.7897 77.844 49.5817 77.922C49.3737 77.974 49.0487 78 48.6067 78C48.3207 78 48.0867 78 47.9047 78C47.6967 78.026 47.4887 78.091 47.2807 78.195ZM79.2135 78.117C78.9275 78.143 78.6025 78.078 78.2385 77.922C77.8745 77.766 77.5495 77.48 77.2635 77.064C77.0035 76.648 76.8735 76.063 76.8735 75.309C76.8735 74.685 76.9905 73.931 77.2245 73.047C76.9125 73.541 76.5095 74.152 76.0155 74.88C75.5215 75.582 74.9885 76.206 74.4165 76.752C73.9225 77.22 73.4545 77.558 73.0125 77.766C72.5705 77.974 72.1675 78.078 71.8035 78.078C71.1275 78.078 70.5815 77.779 70.1655 77.181C69.7495 76.557 69.5415 75.751 69.5415 74.763C69.5415 73.723 69.8015 72.54 70.3215 71.214C70.8415 69.888 71.6865 68.51 72.8565 67.08C73.6105 66.17 74.5205 65.442 75.5865 64.896C76.6785 64.324 77.7445 64.038 78.7845 64.038C79.3825 64.038 79.9545 64.142 80.5005 64.35C81.0465 64.532 81.5275 64.844 81.9435 65.286C82.1255 65.468 82.2165 65.676 82.2165 65.91C82.2165 66.066 82.1515 66.196 82.0215 66.3C81.8915 66.404 81.7225 66.43 81.5145 66.378C81.2285 65.468 80.6175 65.013 79.6815 65.013C79.2395 65.013 78.7325 65.156 78.1605 65.442C77.2765 65.91 76.3535 66.677 75.3915 67.743C74.4555 68.809 73.6365 69.914 72.9345 71.058C72.8305 71.214 72.6615 71.513 72.4275 71.955C72.2195 72.397 72.0115 72.891 71.8035 73.437C71.5955 73.983 71.4525 74.516 71.3745 75.036C71.3485 75.192 71.3355 75.309 71.3355 75.387C71.3355 75.439 71.3355 75.53 71.3355 75.66C71.3355 76.518 71.6605 76.947 72.3105 76.947C73.0905 76.947 73.9745 76.375 74.9625 75.231C75.6385 74.399 76.2495 73.528 76.7955 72.618C77.3415 71.708 77.9005 70.733 78.4725 69.693C78.8625 68.991 79.2265 68.406 79.5645 67.938C79.9025 67.47 80.3835 67.236 81.0075 67.236C81.2935 67.236 81.5795 67.275 81.8655 67.353C82.1515 67.431 82.4505 67.444 82.7625 67.392C82.5545 67.6 82.2685 67.99 81.9045 68.562C81.5665 69.134 81.2025 69.784 80.8125 70.512C80.4225 71.24 80.0715 71.981 79.7595 72.735C79.4475 73.489 79.2265 74.139 79.0965 74.685C79.0705 74.841 79.0315 75.062 78.9795 75.348C78.9535 75.634 78.9405 75.842 78.9405 75.972C78.9405 76.7 79.1485 77.064 79.5645 77.064C79.9805 77.064 80.4225 76.817 80.8905 76.323C81.3845 75.829 81.8655 75.218 82.3335 74.49C82.8015 73.762 83.2305 73.034 83.6205 72.306C84.0105 71.552 84.3225 70.941 84.5565 70.473C84.6605 70.213 84.8165 70.083 85.0245 70.083C85.1545 70.083 85.2195 70.174 85.2195 70.356C85.2195 70.434 85.1805 70.577 85.1025 70.785C84.7905 71.435 84.4135 72.176 83.9715 73.008C83.5295 73.814 83.0485 74.607 82.5285 75.387C82.0085 76.141 81.4625 76.778 80.8905 77.298C80.3445 77.792 79.7855 78.065 79.2135 78.117ZM86.4114 78C85.6834 78 85.0334 77.753 84.4614 77.259C83.8894 76.739 83.6034 75.933 83.6034 74.841C83.6034 73.983 83.7594 72.93 84.0714 71.682C84.4094 70.408 84.8124 69.095 85.2804 67.743C85.7744 66.365 86.2554 65.117 86.7234 63.999H84.6564C84.4744 63.999 84.3834 63.869 84.3834 63.609C84.3834 63.479 84.4094 63.362 84.4614 63.258C84.5394 63.154 84.6434 63.102 84.7734 63.102H87.1134C87.5554 62.114 88.0234 61.152 88.5174 60.216C89.0114 59.28 89.4924 58.396 89.9604 57.564C90.5584 56.524 91.1954 55.744 91.8714 55.224C92.5474 54.704 93.1324 54.444 93.6264 54.444C94.0164 54.444 94.3414 54.6 94.6014 54.912C94.8614 55.198 94.9914 55.64 94.9914 56.238C94.9914 56.602 94.9134 57.109 94.7574 57.759C94.6014 58.383 94.3544 59.046 94.0164 59.748C93.8344 60.112 93.5744 60.632 93.2364 61.308C92.9244 61.984 92.6124 62.582 92.3004 63.102H94.1724C94.3544 63.102 94.4454 63.232 94.4454 63.492C94.4454 63.596 94.4194 63.713 94.3674 63.843C94.3154 63.947 94.2374 63.999 94.1334 63.999H91.8324C91.1824 65.117 90.4414 66.209 89.6094 67.275C88.7774 68.341 87.7894 69.407 86.6454 70.473C86.5674 70.707 86.4634 71.045 86.3334 71.487C86.2294 71.929 86.1254 72.384 86.0214 72.852C85.9434 73.294 85.8654 73.671 85.7874 73.983C85.7354 74.295 85.7094 74.451 85.7094 74.451C85.6314 74.789 85.5924 75.101 85.5924 75.387C85.5924 75.933 85.7224 76.336 85.9824 76.596C86.2424 76.83 86.5414 76.947 86.8794 76.947C87.0874 76.947 87.2954 76.921 87.5034 76.869C87.7114 76.791 87.9454 76.661 88.2054 76.479C89.1154 75.829 89.9084 74.945 90.5844 73.827C91.2864 72.709 91.8974 71.63 92.4174 70.59C92.5734 70.278 92.7294 70.122 92.8854 70.122C92.9894 70.122 93.0414 70.2 93.0414 70.356C93.0414 70.434 93.0024 70.577 92.9244 70.785C92.3524 71.981 91.8714 72.943 91.4814 73.671C91.0914 74.399 90.7144 75.01 90.3504 75.504C89.9864 75.972 89.5574 76.44 89.0634 76.908C88.6994 77.272 88.2834 77.545 87.8154 77.727C87.3474 77.909 86.8794 78 86.4114 78ZM89.4924 63.102H91.4814C91.8454 62.426 92.1834 61.763 92.4954 61.113C92.8334 60.463 93.1324 59.813 93.3924 59.163C93.5744 58.747 93.7304 58.279 93.8604 57.759C93.9904 57.239 94.0554 56.836 94.0554 56.55C94.0554 56.16 93.9644 55.965 93.7824 55.965C93.6524 55.965 93.4574 56.082 93.1974 56.316C92.9634 56.524 92.6644 56.888 92.3004 57.408C91.8324 58.058 91.3644 58.903 90.8964 59.943C90.4544 60.957 89.9864 62.01 89.4924 63.102ZM86.9574 69.225C87.7114 68.445 88.4134 67.613 89.0634 66.729C89.7394 65.845 90.3634 64.935 90.9354 63.999H89.1024C88.6864 64.961 88.2964 65.897 87.9324 66.807C87.5684 67.717 87.2434 68.523 86.9574 69.225ZM95.1151 78.156C94.1531 78.156 93.2821 77.844 92.5021 77.22C91.7481 76.596 91.3711 75.647 91.3711 74.373C91.3711 73.203 91.6571 71.955 92.2291 70.629C92.8011 69.277 93.5291 68.094 94.4131 67.08C95.1671 66.196 96.0121 65.468 96.9481 64.896C97.8841 64.324 98.7681 64.038 99.6001 64.038C100.172 64.038 100.666 64.194 101.082 64.506C101.524 64.844 101.745 65.325 101.745 65.949C101.745 66.599 101.498 67.314 101.004 68.094C100.51 68.874 99.8081 69.602 98.8981 70.278C98.5081 70.564 98.0141 70.837 97.4161 71.097C96.8181 71.357 96.2201 71.578 95.6221 71.76C95.0241 71.916 94.5301 71.994 94.1401 71.994C94.0101 72.306 93.8801 72.722 93.7501 73.242C93.6461 73.762 93.5941 74.295 93.5941 74.841C93.5941 75.491 93.7241 76.076 93.9841 76.596C94.2441 77.116 94.7251 77.376 95.4271 77.376C96.2851 77.376 97.0651 77.129 97.7671 76.635C98.4691 76.141 99.0931 75.53 99.6391 74.802C100.185 74.048 100.64 73.294 101.004 72.54C101.394 71.786 101.706 71.149 101.94 70.629C102.096 70.265 102.304 70.083 102.564 70.083C102.694 70.083 102.759 70.148 102.759 70.278C102.759 70.382 102.72 70.512 102.642 70.668C102.278 71.448 101.888 72.28 101.472 73.164C101.056 74.022 100.562 74.841 99.9901 75.621C99.4181 76.375 98.7291 76.986 97.9231 77.454C97.1431 77.922 96.2071 78.156 95.1151 78.156ZM94.4131 71.292C94.7771 71.292 95.3881 71.162 96.2461 70.902C97.1041 70.616 97.8841 70.174 98.5861 69.576C99.2621 68.978 99.7821 68.328 100.146 67.626C100.51 66.898 100.692 66.287 100.692 65.793C100.692 65.221 100.484 64.935 100.068 64.935C99.7561 64.935 99.3271 65.143 98.7811 65.559C98.2351 65.975 97.5591 66.677 96.7531 67.665C96.2591 68.289 95.7911 68.965 95.3491 69.693C94.9071 70.421 94.5951 70.954 94.4131 71.292Z" fill="black"/>
<g clip-path="url(#clip0_611_7)">
<path d="M81.7383 43.826C81.5424 43.4216 81.231 43.0738 80.8218 42.8025C80.4127 42.5312 79.9139 42.3416 79.354 42.2447C78.794 42.1478 78.1838 42.1453 77.5583 42.2376C76.9328 42.3298 76.3041 42.5148 75.7084 42.7822L74.4721 43.3366L74.0652 42.4977C73.6692 41.6812 72.8115 41.1125 71.6806 40.9168C70.5498 40.721 69.2385 40.9142 68.0352 41.4539C66.832 41.9935 65.8353 42.8355 65.2645 43.7944C64.6936 44.7533 64.5954 45.7508 64.9914 46.5673L65.3982 47.4062L68.3844 53.5634L77.4582 49.4938L78.6945 48.9394C79.2904 48.6722 79.8418 48.328 80.3173 47.9265C80.7928 47.5249 81.183 47.0738 81.4657 46.5989C81.7483 46.1241 81.9179 45.6348 81.9647 45.159C82.0115 44.6832 81.9346 44.2302 81.7383 43.826Z" stroke="black" stroke-width="2" stroke-linecap="round" stroke-linejoin="round"/>
</g>
<defs>
<clipPath id="clip0_611_7">
<rect width="18.8781" height="18.3571" fill="white" transform="matrix(0.985346 0.170569 -0.511506 0.859279 67.3896 38)"/>
</clipPath>
</defs>
</svg>
